HIERARCHY
ROOT hip
{
  OFFSET 0 0 0
  CHANNELS 6 Xposition Yposition Zposition Zrotation Yrotation Xrotation
  JOINT abdomen
  {
    OFFSET 0 20.6881 -0.73152
    CHANNELS 3 Zrotation Xrotation Yrotation
    JOINT chest
    {
      OFFSET 0 11.7043 -0.48768
      CHANNELS 3 Zrotation Xrotation Yrotation
      JOINT neck
      {
        OFFSET 0 22.1894 -2.19456
        CHANNELS 3 Zrotation Xrotation Yrotation
        JOINT head
        {
          OFFSET -0.24384 7.07133 1.2192
          CHANNELS 3 Zrotation Xrotation Yrotation
          JOINT leftEye
          {
            OFFSET 4.14528 8.04674 8.04672
            CHANNELS 3 Zrotation Xrotation Yrotation
            End Site
            {
              OFFSET 1 0 0
            }
          }
          JOINT rightEye
          {
            OFFSET -3.6576 8.04674 8.04672
            CHANNELS 3 Zrotation Xrotation Yrotation
            End Site
            {
              OFFSET 1 0 0
            }
          }
        }
      }
      JOINT rCollar
      {
        OFFSET -2.68224 19.2634 -4.8768
        CHANNELS 3 Zrotation Xrotation Yrotation
        JOINT rShldr
        {
          OFFSET -8.77824 -1.95073 1.46304
          CHANNELS 3 Zrotation Xrotation Yrotation
          JOINT rForeArm
          {
            OFFSET -28.1742 -1.7115 0.48768
            CHANNELS 3 Zrotation Xrotation Yrotation
            JOINT rHand
            {
              OFFSET -22.5879 0.773209 7.07136
              CHANNELS 3 Zrotation Xrotation Yrotation
              JOINT rThumb1
              {
                OFFSET -1.2192 -0.487915 3.41376
                CHANNELS 3 Zrotation Xrotation Yrotation
                JOINT rThumb2
                {
                  OFFSET -3.37035 -0.52449 3.41376
                  CHANNELS 3 Zrotation Xrotation Yrotation
                  End Site
                  {
                    OFFSET -1.78271 -1.18214 1.43049
                  }
                }
              }
              JOINT rIndex1
              {
                OFFSET -7.75947 0.938293 5.60832
                CHANNELS 3 Zrotation Xrotation Yrotation
                JOINT rIndex2
                {
                  OFFSET -2.54057 -0.884171 1.56538
                  CHANNELS 3 Zrotation Xrotation Yrotation
                  End Site
                  {
                    OFFSET -1.62519 -0.234802 1.16502
                  }
                }
              }
              JOINT rMid1
              {
                OFFSET -8.24714 1.18213 3.41376
                CHANNELS 3 Zrotation Xrotation Yrotation
                JOINT rMid2
                {
                  OFFSET -3.10165 -0.590103 1.0647
                  CHANNELS 3 Zrotation Xrotation Yrotation
                  End Site
                  {
                    OFFSET -2.48547 -0.328903 0.83742
                  }
                }
              }
              JOINT rRing1
              {
                OFFSET -8.82822 0.546677 1.51678
                CHANNELS 3 Zrotation Xrotation Yrotation
                JOINT rRing2
                {
                  OFFSET -2.60934 -0.819778 -0.0198488
                  CHANNELS 3 Zrotation Xrotation Yrotation
                  End Site
                  {
                    OFFSET -2.33842 -0.294052 0.168128
                  }
                }
              }
              JOINT rPinky1
              {
                OFFSET -8.27202 -0.0477905 -0.4584
                CHANNELS 3 Zrotation Xrotation Yrotation
                JOINT rPinky2
                {
                  OFFSET -1.82734 -0.647385 -0.700984
                  CHANNELS 3 Zrotation Xrotation Yrotation
                  End Site
                  {
                    OFFSET -1.69225 -0.51767 -0.607171
                  }
                }
              }
            }
          }
        }
      }
      JOINT lCollar
      {
        OFFSET 2.68224 19.2634 -4.8768
        CHANNELS 3 Zrotation Xrotation Yrotation
        JOINT lShldr
        {
          OFFSET 8.77824 -1.95073 1.46304
          CHANNELS 3 Zrotation Xrotation Yrotation
          JOINT lForeArm
          {
            OFFSET 28.1742 -1.7115 0.48768
            CHANNELS 3 Zrotation Xrotation Yrotation
            JOINT lHand
            {
              OFFSET 22.5879 0.773209 7.07136
              CHANNELS 3 Zrotation Xrotation Yrotation
              JOINT lThumb1
              {
                OFFSET 1.2192 -0.487915 3.41376
                CHANNELS 3 Zrotation Xrotation Yrotation
                JOINT lThumb2
                {
                  OFFSET 3.37035 -0.52449 3.41376
                  CHANNELS 3 Zrotation Xrotation Yrotation
                  End Site
                  {
                    OFFSET 1.78271 -1.18214 1.43049
                  }
                }
              }
              JOINT lIndex1
              {
                OFFSET 7.75947 0.938293 5.60832
                CHANNELS 3 Zrotation Xrotation Yrotation
                JOINT lIndex2
                {
                  OFFSET 2.54057 -0.884171 1.56538
                  CHANNELS 3 Zrotation Xrotation Yrotation
                  End Site
                  {
                    OFFSET 1.62519 -0.234802 1.16502
                  }
                }
              }
              JOINT lMid1
              {
                OFFSET 8.24714 1.18213 3.41376
                CHANNELS 3 Zrotation Xrotation Yrotation
                JOINT lMid2
                {
                  OFFSET 3.10165 -0.590103 1.0647
                  CHANNELS 3 Zrotation Xrotation Yrotation
                  End Site
                  {
                    OFFSET 2.48547 -0.328903 0.83742
                  }
                }
              }
              JOINT lRing1
              {
                OFFSET 8.82822 0.546677 1.51678
                CHANNELS 3 Zrotation Xrotation Yrotation
                JOINT lRing2
                {
                  OFFSET 2.60934 -0.819778 -0.0198488
                  CHANNELS 3 Zrotation Xrotation Yrotation
                  End Site
                  {
                    OFFSET 2.33842 -0.294052 0.168128
                  }
                }
              }
              JOINT lPinky1
              {
                OFFSET 8.27202 -0.0477905 -0.4584
                CHANNELS 3 Zrotation Xrotation Yrotation
                JOINT lPinky2
                {
                  OFFSET 1.82734 -0.647385 -0.700984
                  CHANNELS 3 Zrotation Xrotation Yrotation
                  End Site
                  {
                    OFFSET 1.69225 -0.51767 -0.607171
                  }
                }
              }
            }
          }
        }
      }
    }
  }
  JOINT rButtock
  {
    OFFSET -8.77824 4.35084 1.2192
    CHANNELS 3 Zrotation Xrotation Yrotation
    JOINT rThigh
    {
      OFFSET 0 -1.70687 -2.19456
      CHANNELS 3 Zrotation Xrotation Yrotation
      JOINT rShin
      {
        OFFSET 0 -36.8199 0.73152
        CHANNELS 3 Zrotation Xrotation Yrotation
        JOINT rFoot
        {
          OFFSET 0.73152 -45.1104 -5.12064
          CHANNELS 3 Zrotation Xrotation Yrotation
          End Site
          {
            OFFSET -1.1221 -3.69964 12.103
          }
        }
      }
    }
  }
  JOINT lButtock
  {
    OFFSET 8.77824 4.35084 1.2192
    CHANNELS 3 Zrotation Xrotation Yrotation
    JOINT lThigh
    {
      OFFSET 0 -1.70687 -2.19456
      CHANNELS 3 Zrotation Xrotation Yrotation
      JOINT lShin
      {
        OFFSET 0 -36.8199 0.73152
        CHANNELS 3 Zrotation Xrotation Yrotation
        JOINT lFoot
        {
          OFFSET -0.73152 -45.1104 -5.12064
          CHANNELS 3 Zrotation Xrotation Yrotation
          End Site
          {
            OFFSET 1.1221 -3.69964 12.103
          }
        }
      }
    }
  }
}
MOTION
Frames:	5
Frame Time:	0.00833333
-37.4751 86.0573 -26.8097 476.969 -85.5495 242.044 -8.41838 -0.997984 -2.50982 3.13498 2.74839 -0.886078 -1.41919 -5.82795 2.74213 1.47986 19.3908 4.28614 -0.0 0.0 0.0 -0.0 0.0 0.0 -9.02911e-14 1.29986e-12 -1.19064e-13 80.6019 7.76426 -4.15672 -10.899 -4.70552 19.4992 -0.00215131 1.14519 0.160958 8.53144e-10 1.25657e-09 -5.07275e-10 1.4724e-09 2.1788e-09 -8.80528e-10 8.53147e-10 1.25657e-09 -5.0729e-10 7.73091 5.47488 0.417314 8.53139e-10 1.25656e-09 -5.07273e-10 2.90554 0.965183 0.102902 8.53149e-10 1.25657e-09 -5.07282e-10 10.2786 0.731801 0.0259123 8.53146e-10 1.25656e-09 -5.07273e-10 2.22167 -0.733487 -0.20892 -9.04474e-14 1.29986e-12 -1.19364e-13 -76.602 19.7002 -9.54771 8.67248 -3.37289 -15.3344 0.0297355 4.80956 -0.677669 1.19827e-09 -3.36236e-10 3.8462e-10 2.07267e-09 -5.8401e-10 6.57753e-10 1.19826e-09 -3.36239e-10 3.8462e-10 -7.73091 5.47488 -0.417314 1.19827e-09 -3.36241e-10 3.84618e-10 -2.90554 0.965183 -0.102902 1.19827e-09 -3.36242e-10 3.84615e-10 -10.2786 0.731801 -0.0259123 1.19827e-09 -3.3624e-10 3.8461e-10 -2.22167 -0.733487 0.20892 -2.03217e-16 0.0 -3.88251e-19 -17.0476 -21.571 -15.1769 -1.63883 66.7666 2.08089 -0.885869 1.58946 -5.63427 2.03217e-16 0.0 3.88251e-19 -6.39572 -7.54689 -0.237328 0.0684161 23.2211 -0.292049 2.97954 -12.5566 8.92204
-38.3201 85.971 -26.4636 465.629 -85.3173 253.335 -8.80686 -0.980541 -3.03441 3.25241 2.75712 -1.03358 -1.37845 -5.82486 2.74672 1.42203 19.4616 4.27924 -0.0 0.0 0.0 -0.0 0.0 0.0 -7.60772e-14 1.00934e-12 -1.30244e-13 80.5434 6.83117 -4.71943 -10.7752 -4.62565 19.2641 -0.00345358 1.56043 0.21935 9.09749e-10 1.29011e-09 -3.24917e-10 1.57116e-09 2.23775e-09 -5.65793e-10 9.0975e-10 1.29012e-09 -3.24934e-10 7.73091 5.47488 0.417314 9.09745e-10 1.29011e-09 -3.2492e-10 2.90554 0.965183 0.102902 9.09753e-10 1.29011e-09 -3.24924e-10 10.2786 0.731801 0.0259123 9.0975e-10 1.29011e-09 -3.24919e-10 2.22167 -0.733487 -0.20892 -7.6172e-14 1.00935e-12 -1.3053e-13 -76.0811 20.2443 -10.2059 8.79318 -3.43937 -15.5574 0.0267069 4.48941 -0.632397 1.33418e-09 -4.41767e-10 8.40857e-11 2.30664e-09 -7.66782e-10 1.37953e-10 1.33418e-09 -4.4177e-10 8.40878e-11 -7.73091 5.47488 -0.417314 1.33418e-09 -4.41772e-10 8.40877e-11 -2.90554 0.965183 -0.102902 1.33418e-09 -4.41771e-10 8.40886e-11 -10.2786 0.731801 -0.0259123 1.33418e-09 -4.41769e-10 8.40875e-11 -2.22167 -0.733487 0.20892 -2.03217e-16 0.0 -3.88251e-19 -17.6497 -22.3003 -15.9702 -1.58092 66.2482 2.03142 -1.01154 0.320964 -5.5786 2.03217e-16 0.0 3.88251e-19 -6.89546 -7.00629 -0.514749 0.0673764 23.2732 -0.315542 2.99244 -12.8564 8.79615
-39.2333 85.959 -26.4414 462.72 -85.505 256.224 -9.20757 -0.972504 -3.54854 3.3645 2.75945 -1.1769 -1.33614 -5.81604 2.74751 1.35477 19.5037 4.2682 -0.0 0.0 0.0 -0.0 0.0 0.0 -5.41418e-14 6.213e-13 -1.32087e-13 80.4743 5.89389 -5.27426 -10.6603 -4.55233 19.0459 -0.00463423 1.91928 0.269835 8.67391e-10 1.2531e-09 -1.38109e-10 1.499e-09 2.1741e-09 -2.42948e-10 8.67389e-10 1.2531e-09 -1.38127e-10 7.73091 5.47488 0.417314 8.67387e-10 1.2531e-09 -1.38116e-10 2.90554 0.965183 0.102902 8.67392e-10 1.2531e-09 -1.38115e-10 10.2786 0.731801 0.0259123 8.67389e-10 1.2531e-09 -1.38114e-10 2.22167 -0.733487 -0.20892 -5.41745e-14 6.21302e-13 -1.32352e-13 -75.5556 20.7728 -10.8406 8.93158 -3.51653 -15.8133 0.0226868 4.15677 -0.585316 1.34715e-09 -5.07758e-10 -2.15389e-10 2.3284e-09 -8.81002e-10 -3.79432e-10 1.34715e-09 -5.07759e-10 -2.15384e-10 -7.73091 5.47488 -0.417314 1.34714e-09 -5.07762e-10 -2.15384e-10 -2.90554 0.965183 -0.102902 1.34714e-09 -5.07759e-10 -2.15379e-10 -10.2786 0.731801 -0.0259123 1.34715e-09 -5.07757e-10 -2.15376e-10 -2.22167 -0.733487 0.20892 -2.03217e-16 0.0 -3.88251e-19 -18.2707 -22.9895 -16.7576 -1.51048 65.5804 1.96905 -1.14141 -0.93712 -5.59755 2.03217e-16 0.0 3.88251e-19 -7.40814 -6.48369 -0.790893 0.0667678 23.3264 -0.339171 3.00426 -13.1529 8.67041
-40.0519 85.8927 -26.3766 458.7 -85.6406 260.244 -9.43166 -0.976861 -4.01284 3.44139 2.75758 -1.30403 -1.30317 -5.79727 2.74847 1.32184 19.4634 4.26315 -0.0 0.0 0.0 -0.0 0.0 0.0 -2.53496e-14 1.2957e-13 -1.25483e-13 80.4016 4.91813 -5.78893 -10.5467 -4.48026 18.8307 -0.00626602 2.25958 0.31773 6.49717e-10 1.16136e-09 3.00912e-11 1.12366e-09 2.01465e-09 4.85074e-11 6.49715e-10 1.16136e-09 3.00721e-11 7.73091 5.47488 0.417314 6.49714e-10 1.16136e-09 3.00817e-11 2.90554 0.965183 0.102902 6.49719e-10 1.16136e-09 3.00849e-11 10.2786 0.731801 0.0259123 6.49714e-10 1.16136e-09 3.00849e-11 2.22167 -0.733487 -0.20892 -2.53422e-14 1.29571e-13 -1.25731e-13 -74.9831 21.3703 -11.4912 9.089 -3.60591 -16.1039 0.0162722 3.63938 -0.512178 1.17805e-09 -5.08304e-10 -4.88699e-10 2.03565e-09 -8.8172e-10 -8.50978e-10 1.17805e-09 -5.08304e-10 -4.88692e-10 -7.73091 5.47488 -0.417314 1.17805e-09 -5.08307e-10 -4.88692e-10 -2.90554 0.965183 -0.102902 1.17805e-09 -5.08303e-10 -4.88684e-10 -10.2786 0.731801 -0.0259123 1.17805e-09 -5.083e-10 -4.88679e-10 -2.22167 -0.733487 0.20892 -2.03217e-16 0.0 -3.88251e-19 -18.65 -23.684 -17.4145 -1.43047 64.7632 1.89478 -1.27475 -2.03978 -5.74713 2.03217e-16 0.0 3.88251e-19 -7.73481 -5.9991 -1.00847 0.0668339 23.402 -0.362163 3.00666 -13.4499 8.5166
-40.8019 85.7546 -26.2481 453.144 -85.6047 265.877 -9.37394 -0.994979 -4.41704 3.45461 2.74691 -1.41089 -1.28651 -5.75785 2.74808 1.35877 19.2878 4.26228 -0.0 0.0 0.0 -0.0 0.0 0.0 1.96881e-14 -6.2753e-13 -1.06185e-13 80.333 3.84323 -6.24526 -10.4292 -4.40633 18.6088 -0.00835522 2.59914 0.365537 1.01333e-10 9.4013e-10 2.66559e-10 1.76859e-10 1.62916e-09 4.59395e-10 1.01332e-10 9.40134e-10 2.66541e-10 7.73091 5.47488 0.417314 1.0133e-10 9.40135e-10 2.6655e-10 2.90554 0.965183 0.102902 1.01334e-10 9.40131e-10 2.66553e-10 10.2786 0.731801 0.0259123 1.01328e-10 9.40135e-10 2.66555e-10 2.22167 -0.733487 -0.20892 1.97028e-14 -6.27529e-13 -1.06421e-13 -74.3282 22.084 -12.183 9.26641 -3.70771 -16.4325 0.00869079 2.85564 -0.401602 6.81156e-10 -3.84672e-10 -8.01902e-10 1.17644e-09 -6.67019e-10 -1.39021e-09 6.81156e-10 -3.84672e-10 -8.01895e-10 -7.73091 5.47488 -0.417314 6.81152e-10 -3.84674e-10 -8.01897e-10 -2.90554 0.965183 -0.102902 6.81152e-10 -3.8467e-10 -8.01889e-10 -10.2786 0.731801 -0.0259123 6.81156e-10 -3.84667e-10 -8.01886e-10 -2.22167 -0.733487 0.20892 -2.03217e-16 0.0 -3.88251e-19 -18.6635 -24.4165 -17.92 -1.34362 63.7942 1.8109 -1.42397 -2.95059 -6.08375 2.03217e-16 0.0 3.88251e-19 -7.78139 -5.60091 -1.15234 0.0681737 23.5631 -0.385936 2.9962 -13.7591 8.31663
